# xmcd
#
# Track frame offsets: 
#        150
#        57764
#        73725
#        100067
#        132804
#        172733
#        185330
#        228818
#        261952
#        267981
#        284473
#        285137
#        301153
#        317462
#        335498
#
# Disc length: 4764 seconds
#
# Revision: 2
# Processed by: cddbd v1.5.2PL0 Copyright (c) Steve Scherf et al.
# Submitted via: ExactAudioCopy v0.99pb5
#
DISCID=c8129a0f
DTITLE=Miles Davis - 1986 -1991 The Warner Years (Disc-3)
DYEAR=2011
DGENRE=Jazz
TTITLE0=Human Nature (Live Version - Austria)
TTITLE1=Mr. Pastorius (Live Album Version - France)
TTITLE2=Amandla (Live Album Version - Italy)
TTITLE3=Wrinkle (Live Version- Montreux)
TTITLE4=Tutu (Live Album Version)
TTITLE5=Full Nelson (Live Album Version)
TTITLE6=Time After Time (Live Album Version)
TTITLE7=Hannibal (Live Album Version)
TTITLE8=Introduction By Claude Nobs And Quincy Jones (Live Album Versi
TTITLE8=on)
TTITLE9=Boplicity (Live Album Version)
TTITLE10=Introduction To Miles Ahead Medley (Live Album Version)
TTITLE11=Springsville (Live Album Version)
TTITLE12=Maids Of Cadiz (Live Album Version)
TTITLE13=The Duke (Live Album Version)
TTITLE14=My Ship (Live Album Version)
EXTD=YEAR: 2011
EXTT0=
EXTT1=
EXTT2=
EXTT3=
EXTT4=
EXTT5=
EXTT6=
EXTT7=
EXTT8=
EXTT9=
EXTT10=
EXTT11=
EXTT12=
EXTT13=
EXTT14=
PLAYORDER=
